<svg xmlns="http://www.w3.org/2000/svg" width="64" height="64" viewBox="0 0 64 64" role="img" aria-label="Alipay">
  <defs>
    <linearGradient id="g" x1="0" y1="0" x2="1" y2="1">
      <stop offset="0%" stop-color="#1677ff"/>
      <stop offset="100%" stop-color="#0b5bd3"/>
    </linearGradient>
  </defs>
  <rect x="2" y="2" width="60" height="60" rx="12" fill="url(#g)"/>
  <g fill="#fff">
    <path d="M19 40h26a2 2 0 0 0 0-4H19a2 2 0 0 0 0 4z" opacity=".9"/>
    <path d="M32 14c-7.2 0-13 5.8-13 13 0 5.3 3.2 10 8 12.1V28h-3.2c-.9 0-1.5-1-1-1.8l6-9.5c.4-.6 1.3-.6 1.7 0l6 9.5c.5.8-.1 1.8-1 1.8H33v11.9c4.8-2.1 8-6.8 8-12.1 0-7.2-5.8-13-13-13z"/>
  </g>
</svg>

